PathFileType	4	(X/Y/Z)	37_2_34_p1_0-275_filt_butterworth.trc
DataRate	CameraRate	NumFrames	NumMarkers	Units	OrigDataRate	OrigDataStartFrame	OrigNumFrames
59.0	59.0	5	27	m	59.0	68	275
Frame#	Time	RHip			RKnee			RAnkle			RBigToe			RSmallToe			RHeel			LHip			LKnee			LAnkle			LBigToe			LSmallToe			LHeel			Neck			Head			Nose			RShoulder			RElbow			RWrist			RThumb			RIndex			RPinky			LShoulder			LElbow			LWrist			LThumb			LIndex			LPinky			
		X1	Y1	Z1	X2	Y2	Z2	X3	Y3	Z3	X4	Y4	Z4	X5	Y5	Z5	X6	Y6	Z6	X7	Y7	Z7	X8	Y8	Z8	X9	Y9	Z9	X10	Y10	Z10	X11	Y11	Z11	X12	Y12	Z12	X13	Y13	Z13	X14	Y14	Z14	X15	Y15	Z15	X16	Y16	Z16	X17	Y17	Z17	X18	Y18	Z18	X19	Y19	Z19	X20	Y20	Z20	X21	Y21	Z21	X22	Y22	Z22	X23	Y23	Z23	X24	Y24	Z24	X25	Y25	Z25	X26	Y26	Z26	X27	Y27	Z27	
68	1.152542372881356	0.3867552781000735	0.6504703520636472	0.5334239598913556	0.3778520638384704	0.8070452377843841	0.9658964567539055	0.35031260659961977	0.9071844640162758	1.3696975491554337	0.3566612698981511	0.8452662617061911	1.4408415222211235	0.41746560045006353	0.859453477316256	1.4457778358664826	0.3367096095332574	0.9382163747000059	1.4189396779976695	0.18790583849917533	0.679985217295194	0.5360987790422813	0.20166162804123267	0.8355015201781995	0.9733153145590074	0.1676118277834728	1.0176159310944235	1.3912694845058806	0.21284259349571033	0.9323843291011371	1.448106661802355	0.13734521020213664	0.936087003422165	1.4364883160436714	0.16132856068633347	1.0448027746985853	1.4236978826602535	0.28254850664972403	0.5161635620695607	0.018597170955937478	0.2914655726165304	0.3904702186422612	-0.21117698231863313	0.2806492550288917	0.3608565701773963	-0.07111772477950923	0.439027916361412	0.5293471657261809	0.1000548898296848	0.4609811566788345	0.39715675883692425	0.31275109920230404	0.3291700278568266	0.35251480583514105	0.19220424034329184	0.25386668106452176	0.3699729852474992	0.07842021003987865	0.22256512338905454	0.3662186048141161	0.0703492430461233	0.2237372024611682	0.35499852359843337	0.12391119152860901	0.1278248196310039	0.4980661125504153	0.1217074282796721	0.05074239216096813	0.6078707451985255	0.378873828573848	0.1677863299790081	0.49804166917731574	0.5969808081224813	0.2753954546489185	0.48306193048321955	0.6432780888273333	0.2704741252302705	0.4769228272726852	0.676373321286272	0.20594011032594522	0.4707358575218059	0.6948461119030107
69	1.1694915254237288	0.38812325439455886	0.6557006067850457	0.5341266443792524	0.37630357674925863	0.8036859014116108	0.9671692817017488	0.3503145665771678	0.9072207830891501	1.3697078873778579	0.35665846556257175	0.8450130756483615	1.4421468322789317	0.41737668115499055	0.8595116669779818	1.4457589392199939	0.3368167255532702	0.9375655272544563	1.4176588806785684	0.18749516245999795	0.6804045277556836	0.5361201816152978	0.2005671418888457	0.8369217068957977	0.9727562442134154	0.16770158386252765	1.0174498210617478	1.3908451775956152	0.21204112683418344	0.932688334142044	1.4471653572474523	0.13815663842313688	0.9343698901166644	1.4352945361032385	0.16138131030589642	1.044820821410449	1.4249397978937166	0.2810956838340961	0.5106354263716724	0.018150109806385345	0.2903010360761047	0.38778655536245216	-0.21115416287370528	0.27984725137109256	0.36126337655693697	-0.07282385380941732	0.4374305639290873	0.5302221416947854	0.09867661491140202	0.46078632601139474	0.3962028061426562	0.3054704265886773	0.33681075556893375	0.3650412740991694	0.17697839223279827	0.26518036740362283	0.38603610207589323	0.06801096138899189	0.2249290038256732	0.3710385793625753	0.06562705108290963	0.23622691843348984	0.37125990869832753	0.11965049682273476	0.12767329704684585	0.4965755075708208	0.12044515300807108	0.04921756498666252	0.6024160537027282	0.3788374637462189	0.16810088576873036	0.4980774005599763	0.5971411305591545	0.2753035127383819	0.4830535222286131	0.6436868412399448	0.27037563757020483	0.4767550622339374	0.6763702235452551	0.20591972518524654	0.47098573975067787	0.6948744396130894
70	1.1864406779661016	0.3883003450546838	0.6605943179952153	0.5345633931488736	0.37488742478226467	0.798920534449811	0.9677303240903643	0.3503326197077783	0.9071954848746624	1.3697206169940173	0.35660222861644575	0.8448156044412023	1.4431144665512279	0.41727340723697715	0.8595165466351158	1.445874964873312	0.336867968791984	0.9366407827872458	1.4159394800542702	0.18699658787276152	0.6797902542603188	0.536618204077639	0.19907907394489877	0.8369416572021424	0.972941351914832	0.16804904146915217	1.0167702425469451	1.3896001320094196	0.2124397946058766	0.9323327079872772	1.4454802749456885	0.1381508628760488	0.9359092102005699	1.4345810098976464	0.16145285720898492	1.0447531376110935	1.4258430873928554	0.27991383538688924	0.5074385575136441	0.017565509824777066	0.2886845973949194	0.38785384556471325	-0.21115547586898617	0.2791241456614687	0.3617561426709861	-0.07384058500977991	0.4350720084795668	0.5308575747009114	0.09719098181553744	0.46063252987276043	0.3952996300917171	0.2987659073937559	0.34129837373599037	0.37410380635292123	0.15962547240445027	0.2748086584460063	0.4055424525381746	0.05696885072363938	0.23173624335198184	0.37665344481300367	0.0594703895734922	0.24508825266724651	0.38495879748702155	0.1150474689070323	0.12798491558141853	0.49622129135490894	0.11897022235364102	0.047407372993830584	0.5967071696233582	0.37960763050995805	0.16836707444272236	0.49811171399297194	0.5968417770281206	0.2748952514572067	0.482799478311293	0.6430155981537539	0.2704089113343613	0.47681396897502537	0.6758858434231967	0.2059647251656489	0.4710267425013339	0.6948052608224689
71	1.2033898305084745	0.38778914675640064	0.664743885500962	0.5344949141095737	0.3744838059473455	0.7950847436948338	0.9681842290356211	0.35040644991319836	0.9071900939160564	1.3697482751532621	0.3565424310521995	0.8446982097098086	1.4434735730542072	0.4171399768801835	0.8595542952637534	1.4463425384030126	0.3370042323688653	0.9360017510527558	1.414625503894142	0.18678203759553103	0.6789944236757173	0.5379745539934458	0.1979150200105328	0.8360715689789052	0.9741235141282794	0.16864478340653963	1.0156015266476923	1.3878685543064089	0.21462949210840673	0.9326053854068144	1.444279430997847	0.1375741928366708	0.9419919086092433	1.4352570570873977	0.16158777515810963	1.0445254080422932	1.4261629965459535	0.2793748071287251	0.5065471398488375	0.01751966303060938	0.28723429774524767	0.39063007702193775	-0.21144373185231183	0.2787092700425162	0.36281592215983904	-0.07464277897696735	0.4327606543108975	0.5278239396831899	0.09576913123493172	0.4605986291545338	0.39464099151283893	0.29326056022767677	0.3425242986917887	0.3785505860695725	0.1454416920444648	0.2814498568631232	0.42239839922547295	0.0478656305724935	0.24127299805197122	0.38263640142916006	0.05278190765088507	0.2477756990833279	0.3909956999172107	0.10977404023891174	0.12864726729362644	0.4961685871662539	0.11837464136662161	0.045822966922590115	0.592416370742462	0.38124276617477965	0.16833483453175446	0.49788158064043986	0.5955310933074915	0.273886625793307	0.4821117411356374	0.6408773721940145	0.2705872600253809	0.4770610815257516	0.6746630906484536	0.20625483918719767	0.4698035015533714	0.6945362568992862
72	1.2203389830508475	0.38738983211165623	0.6673124190298629	0.534248936495487	0.3749212292769373	0.7934410347623782	0.969068052314399	0.35052936129512546	0.9072493508226773	1.3697814989297468	0.3566252131621862	0.8446149705413891	1.4434550842051608	0.41703501067927706	0.8596989057241268	1.447199456585019	0.3373537006811855	0.936033610732817	1.4140937493793106	0.18678081329168034	0.6786380380126691	0.5398874344757241	0.1969235138290948	0.8337588457319813	0.9748151178123108	0.16927797291152874	1.0144788259654147	1.3864726333155346	0.2174909255714021	0.933537049531524	1.4440166745819971	0.1367794081216398	0.9499177516829569	1.4370567025732903	0.16176798503733011	1.044190075351024	1.4262058040572956	0.2787419980332937	0.5070107860296389	0.017742681786753742	0.2862095153583533	0.39360949068564455	-0.21214843834754743	0.2786554328139049	0.36485801946786844	-0.07655931908336627	0.43122259419867426	0.524010209083116	0.09395630921926287	0.4606259229341337	0.39412405110482207	0.28865548723862594	0.3420000006386235	0.3824482246501518	0.13623674867269397	0.28631216522080133	0.43682529386291974	0.04182935428545683	0.24951992419342853	0.38915519474620297	0.046880161499692624	0.24591153002539848	0.3907430432813124	0.10305946388094411	0.12912265204567744	0.4965740794737682	0.11888694891460874	0.04486341637275475	0.5903148712243385	0.3828373701188005	0.16773119413071771	0.4974532953777191	0.5932968490820131	0.2725125162728871	0.4810735752059426	0.6376987149796056	0.27076799051621064	0.47712537690535206	0.6730153662807615	0.2068315545982608	0.4662653623711486	0.6940604850422005
